<?xml version="1.0" encoding="UTF-8"?>
<svg id="Layer_2" data-name="Layer 2" xmlns="http://www.w3.org/2000/svg" viewBox="0 0 232.94 127.01">
  <defs>
    <style>
      .cls-1 {
        letter-spacing: -.02em;
      }

      .cls-2, .cls-3 {
        fill: #0082af;
      }

      .cls-3 {
        font-family: Gilland-Bold, Gilland;
        font-size: 37px;
        font-weight: 700;
      }
    </style>
  </defs>
  <g id="Layer_1-2">
    <path class="cls-2" d="m190.02,81.67c-11.14-14.6-12.41-38.04-23.65-52.56-.59-.76-11.85,7.03-12.3,7.24-2.52,1.18-3.65-.91-5.03-2.07-1.31-1.1-2.58-2.23-3.67-3.55-7.99-9.69-15.82-19.51-23.74-29.25-1.82-2.24-3.98-1.86-5.2.69-.89,1.85-1.74,3.72-2.78,5.49-6.93,11.89-13.89,23.76-20.93,35.58-.4.67-1.69,1.42-2.33,1.25-3.41-.92-5.35-1.41-8.66-2.65-.77-.29-2-1-3-2-3.25-3.25-4.59-8.7-6.86-12.69-.69-.91-1.65-1.87-2.61-1.87-.05-.01-.96,0-1.16.25-.63.56-1.23,1.13-1.55,1.83-8.12,17.82-16.16,35.68-24.17,53.55-1.21,2.71.22,4.92,3.19,4.92,23.46,0,46.92,0,70.38,0,12.35,0,24.71,0,37.06,0,11.59,0,23.17.03,34.76-.05,1.03,0,2.51-.4,2.94-1.12.38-.65-.1-2.2-.7-2.98Zm-103.57-26.44s0,0,0,0c-2.88-2.15-5.55-4.04-8.13-6.1-1.86-1.49-3.08-1.04-4.21,1.12-1.59,3.05-4.5,8.37-5.95,11-.56,1.01-1.41,1.75-2.4,2.08-3.91,1.31-6.57,2.3-9.98,3.3,0,0-.96-3.35.03-10.2,0,0,0,0,0,0,3.49-7.96,6.94-15.81,10.52-23.97.95-2.16,3.48-2.14,4.58-.06,2.42,4.57,4.51,7.63,6.42,9.33,3.37,3,12.41,5.09,12.41,5.09l.64,11.99-3.94-3.57Zm58.93-19.29c-2.74,6.37-5.65,12.67-8.74,19.51h0c-2.9-3.39-5.5-6.28-7.92-9.32-1.38-1.73-2.69-1.87-4.46-.67-3.38,2.3-6.83,4.5-10.54,6.92h0c-2.2-2.47-4.36-4.89-6.51-7.31-2.52-2.83-2.94-2.87-6-.46-2.96,2.34-5.91,4.69-9.22,6.8h0c6.89-17.14,17.97-31.87,26.96-48.29.2-.36.71-.41.97-.09,4.8,5.87,9.22,11.28,13.64,16.7,3.7,4.53,7.42,9.03,11.04,13.61.54.68,1.06,1.95.78,2.59Zm26,23c-.15.04-3.27-1.67-5.03-2.34-.56-.21-1.16.17-1.22.76l-.79,7.45c-1.13.25-11.74-7.04-12.91-8.22-3.83-3.83-9.39,7.04-8.22,5.87s-2.35-11.74,4.7-18.78c0,0,12.54-9.18,16.77-11.71.9-.54,2.05.05,2.14,1.1.89,10.15,5.11,7.37,4.56,19.98,0,0,0,5.89,0,5.89Z"/>
    <text class="cls-3" transform="translate(39 118.28)" letter-spacing="1.7">
      <tspan x="0" y="0">F</tspan>
      <tspan class="cls-1" x="22" y="0">r</tspan>
      <tspan x="39" y="0">ostHill</tspan>
    </text>
  </g>
</svg>
