<svg xmlns="http://www.w3.org/2000/svg" xmlns:xlink="http://www.w3.org/1999/xlink" version="1.1" width="1000" height="1000" viewBox="0 0 1000 1000" xml:space="preserve">
<desc>Created with Fabric.js 3.5.0</desc>
<defs>
</defs>
<rect x="0" y="0" width="100%" height="100%" fill="#ffffff"/>
<g transform="matrix(3.0303 0 0 3.0303 499.9995 499.9995)" id="610274">
<g style="" vector-effect="non-scaling-stroke">
		<g transform="matrix(0.9552 0 0 0.9552 0.0014 0.0014)" id="Background_circle">
<circle style="stroke: none; stroke-width: 1; stroke-dasharray: none; stroke-linecap: butt; stroke-dashoffset: 0; stroke-linejoin: round; stroke-miterlimit: 2; is-custom-font: none; font-file-url: none; fill: rgb(255,254,254); fill-rule: evenodd; opacity: 1;" cx="0" cy="0" r="150"/>
</g>
		<g transform="matrix(1 0 0 1 0 0)" id="Background_circle">
<path style="stroke: none; stroke-width: 1; stroke-dasharray: none; stroke-linecap: butt; stroke-dashoffset: 0; stroke-linejoin: round; stroke-miterlimit: 2; is-custom-font: none; font-file-url: none; fill: rgb(77,77,77); fill-rule: evenodd; opacity: 1;" transform=" translate(-150, -150)" d="M 150.485 0.001 L 150.969 0.003 L 151.454 0.007 L 151.937 0.012 L 152.421 0.019 L 152.904 0.028 L 153.387 0.038 L 153.869 0.049 L 154.351 0.062 L 154.833 0.077 L 155.314 0.093 L 155.795 0.11 L 156.275 0.129 L 156.755 0.15 L 157.235 0.172 L 157.714 0.195 L 158.193 0.22 L 158.671 0.247 L 159.15 0.275 L 159.627 0.305 L 160.105 0.336 L 160.581 0.368 L 161.058 0.402 L 161.534 0.438 L 162.01 0.475 L 162.485 0.513 L 162.96 0.553 L 163.434 0.595 L 163.908 0.638 L 164.382 0.682 L 164.855 0.728 L 165.327 0.775 L 165.8 0.824 L 166.272 0.874 L 166.743 0.926 L 167.214 0.979 L 167.685 1.034 L 168.155 1.09 L 168.624 1.147 L 169.093 1.206 L 169.562 1.266 L 170.031 1.328 L 170.498 1.392 L 170.966 1.456 L 171.433 1.523 L 171.899 1.59 L 172.365 1.659 L 172.831 1.73 L 173.296 1.802 L 173.76 1.875 L 174.225 1.95 L 174.688 2.026 L 175.151 2.103 L 175.614 2.182 L 176.076 2.263 L 176.538 2.345 L 176.999 2.428 L 177.46 2.512 L 178.38 2.686 L 178.839 2.775 L 179.298 2.865 L 179.757 2.957 L 180.214 3.05 L 180.672 3.144 L 181.128 3.24 L 181.585 3.337 L 182.04 3.436 L 182.496 3.536 L 182.95 3.637 L 183.405 3.74 L 183.858 3.844 L 184.311 3.949 L 184.764 4.056 L 185.216 4.164 L 185.668 4.274 L 186.119 4.385 L 186.569 4.497 L 187.019 4.611 L 187.469 4.726 L 187.918 4.842 L 188.366 4.96 L 188.814 5.079 L 189.261 5.199 L 189.708 5.321 L 190.154 5.444 L 190.6 5.569 L 191.045 5.694 L 191.933 5.95 L 192.377 6.08 L 192.819 6.211 L 193.262 6.343 L 193.703 6.477 L 194.144 6.612 L 194.585 6.748 L 195.025 6.886 L 195.464 7.025 L 195.903 7.166 L 196.341 7.307 L 196.779 7.45 L 197.216 7.594 L 197.652 7.74 L 198.088 7.887 L 198.523 8.035 L 198.958 8.184 L 199.392 8.335 L 199.825 8.487 L 200.258 8.64 L 200.69 8.795 L 201.122 8.951 L 201.553 9.108 L 202.413 9.426 L 202.842 9.587 L 203.271 9.75 L 203.698 9.913 L 204.126 10.078 L 204.552 10.244 L 204.978 10.411 L 205.404 10.58 L 205.828 10.75 L 206.253 10.921 L 207.099 11.267 L 207.521 11.442 L 207.943 11.618 L 208.363 11.796 L 208.784 11.974 L 209.203 12.154 L 209.622 12.335 L 210.04 12.517 L 210.458 12.701 L 210.875 12.886 L 211.291 13.072 L 211.707 13.259 L 212.122 13.448 L 212.536 13.637 L 212.949 13.828 L 213.362 14.02 L 214.186 14.408 L 214.597 14.604 L 215.007 14.801 L 215.417 14.999 L 216.233 15.399 L 216.641 15.601 L 217.047 15.804 L 217.453 16.008 L 217.859 16.214 L 218.263 16.42 L 218.667 16.628 L 219.07 16.837 L 219.473 17.047 L 219.875 17.258 L 220.276 17.471 L 220.676 17.685 L 221.075 17.899 L 221.474 18.115 L 222.27 18.551 L 222.667 18.77 L 223.062 18.991 L 223.458 19.213 L 223.852 19.436 L 224.246 19.66 L 224.639 19.885 L 225.423 20.339 L 225.813 20.568 L 226.203 20.798 L 226.593 21.029 L 226.981 21.261 L 227.369 21.494 L 227.756 21.729 L 228.142 21.964 L 228.527 22.201 L 228.912 22.439 L 229.296 22.678 L 229.679 22.918 L 230.062 23.159 L 230.824 23.645 L 231.204 23.889 L 231.583 24.135 L 231.962 24.382 L 232.339 24.63 L 232.716 24.879 L 233.092 25.129 L 233.468 25.38 L 233.842 25.632 L 234.216 25.886 L 234.589 26.14 L 234.961 26.396 L 235.332 26.652 L 235.702 26.91 L 236.072 27.169 L 236.441 27.429 L 236.809 27.69 L 237.176 27.952 L 237.543 28.215 L 237.908 28.479 L 238.273 28.744 L 238.637 29.011 L 239 29.278 L 239.362 29.546 L 239.724 29.816 L 240.444 30.358 L 240.803 30.631 L 241.161 30.905 L 241.518 31.179 L 241.874 31.455 L 242.23 31.732 L 242.585 32.01 L 242.938 32.289 L 243.291 32.569 L 243.643 32.85 L 243.995 33.132 L 244.345 33.415 L 244.695 33.699 L 245.043 33.984 L 245.391 34.271 L 245.738 34.558 L 246.084 34.846 L 246.429 35.135 L 246.773 35.425 L 247.117 35.717 L 247.459 36.009 L 247.801 36.302 L 248.481 36.892 L 248.82 37.188 L 249.158 37.485 L 249.495 37.784 L 249.831 38.083 L 250.167 38.383 L 250.501 38.684 L 250.835 38.987 L 251.167 39.29 L 251.499 39.594 L 251.83 39.899 L 252.159 40.205 L 252.488 40.513 L 252.816 40.821 L 253.143 41.13 L 253.47 41.44 L 253.795 41.751 L 254.119 42.063 L 254.443 42.376 L 254.765 42.69 L 255.407 43.32 L 255.727 43.637 L 256.363 44.273 L 256.68 44.593 L 257.31 45.235 L 257.624 45.557 L 257.937 45.881 L 258.249 46.205 L 258.56 46.53 L 258.87 46.857 L 259.179 47.184 L 259.487 47.512 L 259.795 47.841 L 260.101 48.17 L 260.406 48.501 L 260.71 48.833 L 261.013 49.165 L 261.316 49.499 L 261.617 49.833 L 261.917 50.169 L 262.216 50.505 L 262.515 50.842 L 262.812 51.18 L 263.108 51.519 L 263.698 52.199 L 263.991 52.541 L 264.283 52.883 L 264.575 53.227 L 264.865 53.571 L 265.154 53.916 L 265.442 54.262 L 265.729 54.609 L 266.016 54.957 L 266.301 55.305 L 266.585 55.655 L 266.868 56.005 L 267.15 56.357 L 267.431 56.709 L 267.711 57.062 L 267.99 57.415 L 268.268 57.77 L 268.545 58.126 L 268.821 58.482 L 269.095 58.839 L 269.369 59.197 L 269.642 59.556 L 270.184 60.276 L 270.454 60.638 L 270.722 61 L 270.989 61.363 L 271.256 61.727 L 271.521 62.092 L 271.785 62.457 L 272.048 62.824 L 272.31 63.191 L 272.571 63.559 L 272.831 63.928 L 273.09 64.298 L 273.348 64.668 L 273.604 65.039 L 273.86 65.411 L 274.114 65.784 L 274.368 66.158 L 274.62 66.532 L 274.871 66.908 L 275.121 67.284 L 275.37 67.661 L 275.618 68.038 L 275.865 68.417 L 276.111 68.796 L 276.355 69.176 L 276.841 69.938 L 277.082 70.321 L 277.322 70.704 L 277.561 71.088 L 277.799 71.473 L 278.036 71.858 L 278.271 72.244 L 278.506 72.631 L 278.739 73.019 L 278.971 73.407 L 279.202 73.797 L 279.432 74.187 L 279.661 74.577 L 280.115 75.361 L 280.34 75.754 L 280.564 76.148 L 280.787 76.542 L 281.009 76.938 L 281.23 77.333 L 281.449 77.73 L 281.885 78.526 L 282.101 78.925 L 282.315 79.324 L 282.529 79.724 L 282.742 80.125 L 282.953 80.527 L 283.163 80.93 L 283.372 81.333 L 283.58 81.737 L 283.786 82.141 L 283.992 82.547 L 284.196 82.953 L 284.399 83.359 L 284.601 83.767 L 285.001 84.583 L 285.199 84.993 L 285.396 85.403 L 285.592 85.814 L 285.98 86.638 L 286.172 87.051 L 286.363 87.464 L 286.552 87.878 L 286.741 88.293 L 286.928 88.709 L 287.114 89.125 L 287.299 89.542 L 287.483 89.96 L 287.665 90.378 L 287.846 90.797 L 288.026 91.216 L 288.204 91.637 L 288.382 92.057 L 288.558 92.479 L 288.733 92.901 L 289.079 93.747 L 289.25 94.172 L 289.42 94.596 L 289.589 95.022 L 289.756 95.448 L 289.922 95.874 L 290.087 96.302 L 290.25 96.729 L 290.413 97.158 L 290.574 97.587 L 290.892 98.447 L 291.049 98.878 L 291.205 99.31 L 291.36 99.742 L 291.513 100.175 L 291.665 100.608 L 291.816 101.042 L 291.965 101.477 L 292.113 101.912 L 292.26 102.348 L 292.406 102.784 L 292.55 103.221 L 292.693 103.659 L 292.834 104.097 L 292.975 104.536 L 293.114 104.975 L 293.252 105.415 L 293.388 105.856 L 293.523 106.297 L 293.657 106.738 L 293.789 107.181 L 293.92 107.623 L 294.05 108.067 L 294.306 108.955 L 294.431 109.4 L 294.556 109.846 L 294.679 110.292 L 294.801 110.739 L 294.921 111.186 L 295.04 111.634 L 295.158 112.082 L 295.274 112.531 L 295.389 112.981 L 295.503 113.431 L 295.615 113.881 L 295.726 114.332 L 295.836 114.784 L 295.944 115.236 L 296.051 115.689 L 296.156 116.142 L 296.26 116.595 L 296.363 117.05 L 296.464 117.504 L 296.564 117.96 L 296.663 118.415 L 296.76 118.872 L 296.856 119.328 L 296.95 119.786 L 297.043 120.243 L 297.135 120.702 L 297.225 121.161 L 297.314 121.62 L 297.488 122.54 L 297.572 123.001 L 297.655 123.462 L 297.737 123.924 L 297.818 124.386 L 297.897 124.849 L 297.974 125.312 L 298.05 125.775 L 298.125 126.24 L 298.198 126.704 L 298.27 127.169 L 298.341 127.635 L 298.41 128.101 L 298.477 128.567 L 298.544 129.034 L 298.608 129.502 L 298.672 129.969 L 298.734 130.438 L 298.794 130.907 L 298.853 131.376 L 298.91 131.845 L 298.966 132.315 L 299.021 132.786 L 299.074 133.257 L 299.126 133.728 L 299.176 134.2 L 299.225 134.673 L 299.272 135.145 L 299.318 135.618 L 299.362 136.092 L 299.405 136.566 L 299.447 137.04 L 299.487 137.515 L 299.525 137.99 L 299.562 138.466 L 299.598 138.942 L 299.632 139.419 L 299.664 139.895 L 299.695 140.373 L 299.725 140.85 L 299.753 141.329 L 299.78 141.807 L 299.805 142.286 L 299.828 142.765 L 299.85 143.245 L 299.871 143.725 L 299.89 144.205 L 299.907 144.686 L 299.923 145.167 L 299.938 145.649 L 299.951 146.131 L 299.962 146.613 L 299.972 147.096 L 299.981 147.579 L 299.988 148.063 L 299.993 148.546 L 299.997 149.031 L 299.999 149.515 L 300 150 L 299.999 150.485 L 299.997 150.969 L 299.993 151.454 L 299.988 151.937 L 299.981 152.421 L 299.972 152.904 L 299.962 153.387 L 299.951 153.869 L 299.938 154.351 L 299.923 154.833 L 299.907 155.314 L 299.89 155.795 L 299.871 156.275 L 299.85 156.755 L 299.828 157.235 L 299.805 157.714 L 299.78 158.193 L 299.753 158.671 L 299.725 159.15 L 299.695 159.627 L 299.664 160.105 L 299.632 160.581 L 299.598 161.058 L 299.562 161.534 L 299.525 162.01 L 299.487 162.485 L 299.447 162.96 L 299.405 163.434 L 299.362 163.908 L 299.318 164.382 L 299.272 164.855 L 299.225 165.327 L 299.176 165.8 L 299.126 166.272 L 299.074 166.743 L 299.021 167.214 L 298.966 167.685 L 298.91 168.155 L 298.853 168.624 L 298.794 169.093 L 298.734 169.562 L 298.672 170.031 L 298.608 170.498 L 298.544 170.966 L 298.477 171.433 L 298.41 171.899 L 298.341 172.365 L 298.27 172.831 L 298.198 173.296 L 298.125 173.76 L 298.05 174.225 L 297.974 174.688 L 297.897 175.151 L 297.818 175.614 L 297.737 176.076 L 297.655 176.538 L 297.572 176.999 L 297.488 177.46 L 297.314 178.38 L 297.225 178.839 L 297.135 179.298 L 297.043 179.757 L 296.95 180.214 L 296.856 180.672 L 296.76 181.128 L 296.663 181.585 L 296.564 182.04 L 296.464 182.496 L 296.363 182.95 L 296.26 183.405 L 296.156 183.858 L 296.051 184.311 L 295.944 184.764 L 295.836 185.216 L 295.726 185.668 L 295.615 186.119 L 295.503 186.569 L 295.389 187.019 L 295.274 187.469 L 295.158 187.918 L 295.04 188.366 L 294.921 188.814 L 294.801 189.261 L 294.679 189.708 L 294.556 190.154 L 294.431 190.6 L 294.306 191.045 L 294.05 191.933 L 293.92 192.377 L 293.789 192.819 L 293.657 193.262 L 293.523 193.703 L 293.388 194.144 L 293.252 194.585 L 293.114 195.025 L 292.975 195.464 L 292.834 195.903 L 292.693 196.341 L 292.55 196.779 L 292.406 197.216 L 292.26 197.652 L 292.113 198.088 L 291.965 198.523 L 291.816 198.958 L 291.665 199.392 L 291.513 199.825 L 291.36 200.258 L 291.205 200.69 L 291.049 201.122 L 290.892 201.553 L 290.574 202.413 L 290.413 202.842 L 290.25 203.271 L 290.087 203.698 L 289.922 204.126 L 289.756 204.552 L 289.589 204.978 L 289.42 205.404 L 289.25 205.828 L 289.079 206.253 L 288.733 207.099 L 288.558 207.521 L 288.382 207.943 L 288.204 208.363 L 288.026 208.784 L 287.846 209.203 L 287.665 209.622 L 287.483 210.04 L 287.299 210.458 L 287.114 210.875 L 286.928 211.291 L 286.741 211.707 L 286.552 212.122 L 286.363 212.536 L 286.172 212.949 L 285.98 213.362 L 285.592 214.186 L 285.396 214.597 L 285.199 215.007 L 285.001 215.417 L 284.601 216.233 L 284.399 216.641 L 284.196 217.047 L 283.992 217.453 L 283.786 217.859 L 283.58 218.263 L 283.372 218.667 L 283.163 219.07 L 282.953 219.473 L 282.742 219.875 L 282.529 220.276 L 282.315 220.676 L 282.101 221.075 L 281.885 221.474 L 281.449 222.27 L 281.23 222.667 L 281.009 223.062 L 280.787 223.458 L 280.564 223.852 L 280.34 224.246 L 280.115 224.639 L 279.661 225.423 L 279.432 225.813 L 279.202 226.203 L 278.971 226.593 L 278.739 226.981 L 278.506 227.369 L 278.271 227.756 L 278.036 228.142 L 277.799 228.527 L 277.561 228.912 L 277.322 229.296 L 277.082 229.679 L 276.841 230.062 L 276.355 230.824 L 276.111 231.204 L 275.865 231.583 L 275.618 231.962 L 275.37 232.339 L 275.121 232.716 L 274.871 233.092 L 274.62 233.468 L 274.368 233.842 L 274.114 234.216 L 273.86 234.589 L 273.604 234.961 L 273.348 235.332 L 273.09 235.702 L 272.831 236.072 L 272.571 236.441 L 272.31 236.809 L 272.048 237.176 L 271.785 237.543 L 271.521 237.908 L 271.256 238.273 L 270.989 238.637 L 270.722 239 L 270.454 239.362 L 270.184 239.724 L 269.642 240.444 L 269.369 240.803 L 269.095 241.161 L 268.821 241.518 L 268.545 241.874 L 268.268 242.23 L 267.99 242.585 L 267.711 242.938 L 267.431 243.291 L 267.15 243.643 L 266.868 243.995 L 266.585 244.345 L 266.301 244.695 L 266.016 245.043 L 265.729 245.391 L 265.442 245.738 L 265.154 246.084 L 264.865 246.429 L 264.575 246.773 L 264.283 247.117 L 263.991 247.459 L 263.698 247.801 L 263.108 248.481 L 262.812 248.82 L 262.515 249.158 L 262.216 249.495 L 261.917 249.831 L 261.617 250.167 L 261.316 250.501 L 261.013 250.835 L 260.71 251.167 L 260.406 251.499 L 260.101 251.83 L 259.795 252.159 L 259.487 252.488 L 259.179 252.816 L 258.87 253.143 L 258.56 253.47 L 258.249 253.795 L 257.937 254.119 L 257.624 254.443 L 257.31 254.765 L 256.68 255.407 L 256.363 255.727 L 255.727 256.363 L 255.407 256.68 L 254.765 257.31 L 254.443 257.624 L 254.119 257.937 L 253.795 258.249 L 253.47 258.56 L 253.143 258.87 L 252.816 259.179 L 252.488 259.487 L 252.159 259.795 L 251.83 260.101 L 251.499 260.406 L 251.167 260.71 L 250.835 261.013 L 250.501 261.316 L 250.167 261.617 L 249.831 261.917 L 249.495 262.216 L 249.158 262.515 L 248.82 262.812 L 248.481 263.108 L 247.801 263.698 L 247.459 263.991 L 247.117 264.283 L 246.773 264.575 L 246.429 264.865 L 246.084 265.154 L 245.738 265.442 L 245.391 265.729 L 245.043 266.016 L 244.695 266.301 L 244.345 266.585 L 243.995 266.868 L 243.643 267.15 L 243.291 267.431 L 242.938 267.711 L 242.585 267.99 L 242.23 268.268 L 241.874 268.545 L 241.518 268.821 L 241.161 269.095 L 240.803 269.369 L 240.444 269.642 L 239.724 270.184 L 239.362 270.454 L 239 270.722 L 238.637 270.989 L 238.273 271.256 L 237.908 271.521 L 237.543 271.785 L 237.176 272.048 L 236.809 272.31 L 236.441 272.571 L 236.072 272.831 L 235.702 273.09 L 235.332 273.348 L 234.961 273.604 L 234.589 273.86 L 234.216 274.114 L 233.842 274.368 L 233.468 274.62 L 233.092 274.871 L 232.716 275.121 L 232.339 275.37 L 231.962 275.618 L 231.583 275.865 L 231.204 276.111 L 230.824 276.355 L 230.062 276.841 L 229.679 277.082 L 229.296 277.322 L 228.912 277.561 L 228.527 277.799 L 228.142 278.036 L 227.756 278.271 L 227.369 278.506 L 226.981 278.739 L 226.593 278.971 L 226.203 279.202 L 225.813 279.432 L 225.423 279.661 L 224.639 280.115 L 224.246 280.34 L 223.852 280.564 L 223.458 280.787 L 223.062 281.009 L 222.667 281.23 L 222.27 281.449 L 221.474 281.885 L 221.075 282.101 L 220.676 282.315 L 220.276 282.529 L 219.875 282.742 L 219.473 282.953 L 219.07 283.163 L 218.667 283.372 L 218.263 283.58 L 217.859 283.786 L 217.453 283.992 L 217.047 284.196 L 216.641 284.399 L 216.233 284.601 L 215.417 285.001 L 215.007 285.199 L 214.597 285.396 L 214.186 285.592 L 213.362 285.98 L 212.949 286.172 L 212.536 286.363 L 212.122 286.552 L 211.707 286.741 L 211.291 286.928 L 210.875 287.114 L 210.458 287.299 L 210.04 287.483 L 209.622 287.665 L 209.203 287.846 L 208.784 288.026 L 208.363 288.204 L 207.943 288.382 L 207.521 288.558 L 207.099 288.733 L 206.253 289.079 L 205.828 289.25 L 205.404 289.42 L 204.978 289.589 L 204.552 289.756 L 204.126 289.922 L 203.698 290.087 L 203.271 290.25 L 202.842 290.413 L 202.413 290.574 L 201.553 290.892 L 201.122 291.049 L 200.69 291.205 L 200.258 291.36 L 199.825 291.513 L 199.392 291.665 L 198.958 291.816 L 198.523 291.965 L 198.088 292.113 L 197.652 292.26 L 197.216 292.406 L 196.779 292.55 L 196.341 292.693 L 195.903 292.834 L 195.464 292.975 L 195.025 293.114 L 194.585 293.252 L 194.144 293.388 L 193.703 293.523 L 193.262 293.657 L 192.819 293.789 L 192.377 293.92 L 191.933 294.05 L 191.045 294.306 L 190.6 294.431 L 190.154 294.556 L 189.708 294.679 L 189.261 294.801 L 188.814 294.921 L 188.366 295.04 L 187.918 295.158 L 187.469 295.274 L 187.019 295.389 L 186.569 295.503 L 186.119 295.615 L 185.668 295.726 L 185.216 295.836 L 184.764 295.944 L 184.311 296.051 L 183.858 296.156 L 183.405 296.26 L 182.95 296.363 L 182.496 296.464 L 182.04 296.564 L 181.585 296.663 L 181.128 296.76 L 180.672 296.856 L 180.214 296.95 L 179.757 297.043 L 179.298 297.135 L 178.839 297.225 L 178.38 297.314 L 177.46 297.488 L 176.999 297.572 L 176.538 297.655 L 176.076 297.737 L 175.614 297.818 L 175.151 297.897 L 174.688 297.974 L 174.225 298.05 L 173.76 298.125 L 173.296 298.198 L 172.831 298.27 L 172.365 298.341 L 171.899 298.41 L 171.433 298.477 L 170.966 298.544 L 170.498 298.608 L 170.031 298.672 L 169.562 298.734 L 169.093 298.794 L 168.624 298.853 L 168.155 298.91 L 167.685 298.966 L 167.214 299.021 L 166.743 299.074 L 166.272 299.126 L 165.8 299.176 L 165.327 299.225 L 164.855 299.272 L 164.382 299.318 L 163.908 299.362 L 163.434 299.405 L 162.96 299.447 L 162.485 299.487 L 162.01 299.525 L 161.534 299.562 L 161.058 299.598 L 160.581 299.632 L 160.105 299.664 L 159.627 299.695 L 159.15 299.725 L 158.671 299.753 L 158.193 299.78 L 157.714 299.805 L 157.235 299.828 L 156.755 299.85 L 156.275 299.871 L 155.795 299.89 L 155.314 299.907 L 154.833 299.923 L 154.351 299.938 L 153.869 299.951 L 153.387 299.962 L 152.904 299.972 L 152.421 299.981 L 151.937 299.988 L 151.454 299.993 L 150.969 299.997 L 150.485 299.999 L 150 300 L 149.515 299.999 L 149.031 299.997 L 148.546 299.993 L 148.063 299.988 L 147.579 299.981 L 147.096 299.972 L 146.613 299.962 L 146.131 299.951 L 145.649 299.938 L 145.167 299.923 L 144.686 299.907 L 144.205 299.89 L 143.725 299.871 L 143.245 299.85 L 142.765 299.828 L 142.286 299.805 L 141.807 299.78 L 141.329 299.753 L 140.85 299.725 L 140.373 299.695 L 139.895 299.664 L 139.419 299.632 L 138.942 299.598 L 138.466 299.562 L 137.99 299.525 L 137.515 299.487 L 137.04 299.447 L 136.566 299.405 L 136.092 299.362 L 135.618 299.318 L 135.145 299.272 L 134.673 299.225 L 134.2 299.176 L 133.728 299.126 L 133.257 299.074 L 132.786 299.021 L 132.315 298.966 L 131.845 298.91 L 131.376 298.853 L 130.907 298.794 L 130.438 298.734 L 129.969 298.672 L 129.502 298.608 L 129.034 298.544 L 128.567 298.477 L 128.101 298.41 L 127.635 298.341 L 127.169 298.27 L 126.704 298.198 L 126.24 298.125 L 125.775 298.05 L 125.312 297.974 L 124.849 297.897 L 124.386 297.818 L 123.924 297.737 L 123.462 297.655 L 123.001 297.572 L 122.54 297.488 L 121.62 297.314 L 121.161 297.225 L 120.702 297.135 L 120.243 297.043 L 119.786 296.95 L 119.328 296.856 L 118.872 296.76 L 118.415 296.663 L 117.96 296.564 L 117.504 296.464 L 117.05 296.363 L 116.595 296.26 L 116.142 296.156 L 115.689 296.051 L 115.236 295.944 L 114.784 295.836 L 114.332 295.726 L 113.881 295.615 L 113.431 295.503 L 112.981 295.389 L 112.531 295.274 L 112.082 295.158 L 111.634 295.04 L 111.186 294.921 L 110.739 294.801 L 110.292 294.679 L 109.846 294.556 L 109.4 294.431 L 108.955 294.306 L 108.067 294.05 L 107.623 293.92 L 107.181 293.789 L 106.738 293.657 L 106.297 293.523 L 105.856 293.388 L 105.415 293.252 L 104.975 293.114 L 104.536 292.975 L 104.097 292.834 L 103.659 292.693 L 103.221 292.55 L 102.784 292.406 L 102.348 292.26 L 101.912 292.113 L 101.477 291.965 L 101.042 291.816 L 100.608 291.665 L 100.175 291.513 L 99.742 291.36 L 99.31 291.205 L 98.878 291.049 L 98.447 290.892 L 97.587 290.574 L 97.158 290.413 L 96.729 290.25 L 96.302 290.087 L 95.874 289.922 L 95.448 289.756 L 95.022 289.589 L 94.596 289.42 L 94.172 289.25 L 93.747 289.079 L 92.901 288.733 L 92.479 288.558 L 92.057 288.382 L 91.637 288.204 L 91.216 288.026 L 90.797 287.846 L 90.378 287.665 L 89.96 287.483 L 89.542 287.299 L 89.125 287.114 L 88.709 286.928 L 88.293 286.741 L 87.878 286.552 L 87.464 286.363 L 87.051 286.172 L 86.638 285.98 L 85.814 285.592 L 85.403 285.396 L 84.993 285.199 L 84.583 285.001 L 83.767 284.601 L 83.359 284.399 L 82.953 284.196 L 82.547 283.992 L 82.141 283.786 L 81.737 283.58 L 81.333 283.372 L 80.93 283.163 L 80.527 282.953 L 80.125 282.742 L 79.724 282.529 L 79.324 282.315 L 78.925 282.101 L 78.526 281.885 L 77.73 281.449 L 77.333 281.23 L 76.938 281.009 L 76.542 280.787 L 76.148 280.564 L 75.754 280.34 L 75.361 280.115 L 74.577 279.661 L 74.187 279.432 L 73.797 279.202 L 73.407 278.971 L 73.019 278.739 L 72.631 278.506 L 72.244 278.271 L 71.858 278.036 L 71.473 277.799 L 71.088 277.561 L 70.704 277.322 L 70.321 277.082 L 69.938 276.841 L 69.176 276.355 L 68.796 276.111 L 68.417 275.865 L 68.038 275.618 L 67.661 275.37 L 67.284 275.121 L 66.908 274.871 L 66.532 274.62 L 66.158 274.368 L 65.784 274.114 L 65.411 273.86 L 65.039 273.604 L 64.668 273.348 L 64.298 273.09 L 63.928 272.831 L 63.559 272.571 L 63.191 272.31 L 62.824 272.048 L 62.457 271.785 L 62.092 271.521 L 61.727 271.256 L 61.363 270.989 L 61 270.722 L 60.638 270.454 L 60.276 270.184 L 59.556 269.642 L 59.197 269.369 L 58.839 269.095 L 58.482 268.821 L 58.126 268.545 L 57.77 268.268 L 57.415 267.99 L 57.062 267.711 L 56.709 267.431 L 56.357 267.15 L 56.005 266.868 L 55.655 266.585 L 55.305 266.301 L 54.957 266.016 L 54.609 265.729 L 54.262 265.442 L 53.916 265.154 L 53.571 264.865 L 53.227 264.575 L 52.883 264.283 L 52.541 263.991 L 52.199 263.698 L 51.519 263.108 L 51.18 262.812 L 50.842 262.515 L 50.505 262.216 L 50.169 261.917 L 49.833 261.617 L 49.499 261.316 L 49.165 261.013 L 48.833 260.71 L 48.501 260.406 L 48.17 260.101 L 47.841 259.795 L 47.512 259.487 L 47.184 259.179 L 46.857 258.87 L 46.53 258.56 L 46.205 258.249 L 45.881 257.937 L 45.557 257.624 L 45.235 257.31 L 44.593 256.68 L 44.273 256.363 L 43.637 255.727 L 43.32 255.407 L 42.69 254.765 L 42.376 254.443 L 42.063 254.119 L 41.751 253.795 L 41.44 253.47 L 41.13 253.143 L 40.821 252.816 L 40.513 252.488 L 40.205 252.159 L 39.899 251.83 L 39.594 251.499 L 39.29 251.167 L 38.987 250.835 L 38.684 250.501 L 38.383 250.167 L 38.083 249.831 L 37.784 249.495 L 37.485 249.158 L 37.188 248.82 L 36.892 248.481 L 36.302 247.801 L 36.009 247.459 L 35.717 247.117 L 35.425 246.773 L 35.135 246.429 L 34.846 246.084 L 34.558 245.738 L 34.271 245.391 L 33.984 245.043 L 33.699 244.695 L 33.415 244.345 L 33.132 243.995 L 32.85 243.643 L 32.569 243.291 L 32.289 242.938 L 32.01 242.585 L 31.732 242.23 L 31.455 241.874 L 31.179 241.518 L 30.905 241.161 L 30.631 240.803 L 30.358 240.444 L 29.816 239.724 L 29.546 239.362 L 29.278 239 L 29.011 238.637 L 28.744 238.273 L 28.479 237.908 L 28.215 237.543 L 27.952 237.176 L 27.69 236.809 L 27.429 236.441 L 27.169 236.072 L 26.91 235.702 L 26.652 235.332 L 26.396 234.961 L 26.14 234.589 L 25.886 234.216 L 25.632 233.842 L 25.38 233.468 L 25.129 233.092 L 24.879 232.716 L 24.63 232.339 L 24.382 231.962 L 24.135 231.583 L 23.889 231.204 L 23.645 230.824 L 23.159 230.062 L 22.918 229.679 L 22.678 229.296 L 22.439 228.912 L 22.201 228.527 L 21.964 228.142 L 21.729 227.756 L 21.494 227.369 L 21.261 226.981 L 21.029 226.593 L 20.798 226.203 L 20.568 225.813 L 20.339 225.423 L 19.885 224.639 L 19.66 224.246 L 19.436 223.852 L 19.213 223.458 L 18.991 223.062 L 18.77 222.667 L 18.551 222.27 L 18.115 221.474 L 17.899 221.075 L 17.685 220.676 L 17.471 220.276 L 17.258 219.875 L 17.047 219.473 L 16.837 219.07 L 16.628 218.667 L 16.42 218.263 L 16.214 217.859 L 16.008 217.453 L 15.804 217.047 L 15.601 216.641 L 15.399 216.233 L 14.999 215.417 L 14.801 215.007 L 14.604 214.597 L 14.408 214.186 L 14.02 213.362 L 13.828 212.949 L 13.637 212.536 L 13.448 212.122 L 13.259 211.707 L 13.072 211.291 L 12.886 210.875 L 12.701 210.458 L 12.517 210.04 L 12.335 209.622 L 12.154 209.203 L 11.974 208.784 L 11.796 208.363 L 11.618 207.943 L 11.442 207.521 L 11.267 207.099 L 10.921 206.253 L 10.75 205.828 L 10.58 205.404 L 10.411 204.978 L 10.244 204.552 L 10.078 204.126 L 9.913 203.698 L 9.75 203.271 L 9.587 202.842 L 9.426 202.413 L 9.108 201.553 L 8.951 201.122 L 8.795 200.69 L 8.64 200.258 L 8.487 199.825 L 8.335 199.392 L 8.184 198.958 L 8.035 198.523 L 7.887 198.088 L 7.74 197.652 L 7.594 197.216 L 7.45 196.779 L 7.307 196.341 L 7.166 195.903 L 7.025 195.464 L 6.886 195.025 L 6.748 194.585 L 6.612 194.144 L 6.477 193.703 L 6.343 193.262 L 6.211 192.819 L 6.08 192.377 L 5.95 191.933 L 5.694 191.045 L 5.569 190.6 L 5.444 190.154 L 5.321 189.708 L 5.199 189.261 L 5.079 188.814 L 4.96 188.366 L 4.842 187.918 L 4.726 187.469 L 4.611 187.019 L 4.497 186.569 L 4.385 186.119 L 4.274 185.668 L 4.164 185.216 L 4.056 184.764 L 3.949 184.311 L 3.844 183.858 L 3.74 183.405 L 3.637 182.95 L 3.536 182.496 L 3.436 182.04 L 3.337 181.585 L 3.24 181.128 L 3.144 180.672 L 3.05 180.214 L 2.957 179.757 L 2.865 179.298 L 2.775 178.839 L 2.686 178.38 L 2.512 177.46 L 2.428 176.999 L 2.345 176.538 L 2.263 176.076 L 2.182 175.614 L 2.103 175.151 L 2.026 174.688 L 1.95 174.225 L 1.875 173.76 L 1.802 173.296 L 1.73 172.831 L 1.659 172.365 L 1.59 171.899 L 1.523 171.433 L 1.456 170.966 L 1.392 170.498 L 1.328 170.031 L 1.266 169.562 L 1.206 169.093 L 1.147 168.624 L 1.09 168.155 L 1.034 167.685 L 0.979 167.214 L 0.926 166.743 L 0.874 166.272 L 0.824 165.8 L 0.775 165.327 L 0.728 164.855 L 0.682 164.382 L 0.638 163.908 L 0.595 163.434 L 0.553 162.96 L 0.513 162.485 L 0.475 162.01 L 0.438 161.534 L 0.402 161.058 L 0.368 160.581 L 0.336 160.105 L 0.305 159.627 L 0.275 159.15 L 0.247 158.671 L 0.22 158.193 L 0.195 157.714 L 0.172 157.235 L 0.15 156.755 L 0.129 156.275 L 0.11 155.795 L 0.093 155.314 L 0.077 154.833 L 0.062 154.351 L 0.049 153.869 L 0.038 153.387 L 0.028 152.904 L 0.019 152.421 L 0.012 151.937 L 0.007 151.454 L 0.003 150.969 L 0.001 150.485 L 0 150 L 0.001 149.515 L 0.003 149.031 L 0.007 148.546 L 0.012 148.063 L 0.019 147.579 L 0.028 147.096 L 0.038 146.613 L 0.049 146.131 L 0.062 145.649 L 0.077 145.167 L 0.093 144.686 L 0.11 144.205 L 0.129 143.725 L 0.15 143.245 L 0.172 142.765 L 0.195 142.286 L 0.22 141.807 L 0.247 141.329 L 0.275 140.85 L 0.305 140.373 L 0.336 139.895 L 0.368 139.419 L 0.402 138.942 L 0.438 138.466 L 0.475 137.99 L 0.513 137.515 L 0.553 137.04 L 0.595 136.566 L 0.638 136.092 L 0.682 135.618 L 0.728 135.145 L 0.775 134.673 L 0.824 134.2 L 0.874 133.728 L 0.926 133.257 L 0.979 132.786 L 1.034 132.315 L 1.09 131.845 L 1.147 131.376 L 1.206 130.907 L 1.266 130.438 L 1.328 129.969 L 1.392 129.502 L 1.456 129.034 L 1.523 128.567 L 1.59 128.101 L 1.659 127.635 L 1.73 127.169 L 1.802 126.704 L 1.875 126.24 L 1.95 125.775 L 2.026 125.312 L 2.103 124.849 L 2.182 124.386 L 2.263 123.924 L 2.345 123.462 L 2.428 123.001 L 2.512 122.54 L 2.686 121.62 L 2.775 121.161 L 2.865 120.702 L 2.957 120.243 L 3.05 119.786 L 3.144 119.328 L 3.24 118.872 L 3.337 118.415 L 3.436 117.96 L 3.536 117.504 L 3.637 117.05 L 3.74 116.595 L 3.844 116.142 L 3.949 115.689 L 4.056 115.236 L 4.164 114.784 L 4.274 114.332 L 4.385 113.881 L 4.497 113.431 L 4.611 112.981 L 4.726 112.531 L 4.842 112.082 L 4.96 111.634 L 5.079 111.186 L 5.199 110.739 L 5.321 110.292 L 5.444 109.846 L 5.569 109.4 L 5.694 108.955 L 5.95 108.067 L 6.08 107.623 L 6.211 107.181 L 6.343 106.738 L 6.477 106.297 L 6.612 105.856 L 6.748 105.415 L 6.886 104.975 L 7.025 104.536 L 7.166 104.097 L 7.307 103.659 L 7.45 103.221 L 7.594 102.784 L 7.74 102.348 L 7.887 101.912 L 8.035 101.477 L 8.184 101.042 L 8.335 100.608 L 8.487 100.175 L 8.64 99.742 L 8.795 99.31 L 8.951 98.878 L 9.108 98.447 L 9.426 97.587 L 9.587 97.158 L 9.75 96.729 L 9.913 96.302 L 10.078 95.874 L 10.244 95.448 L 10.411 95.022 L 10.58 94.596 L 10.75 94.172 L 10.921 93.747 L 11.267 92.901 L 11.442 92.479 L 11.618 92.057 L 11.796 91.637 L 11.974 91.216 L 12.154 90.797 L 12.335 90.378 L 12.517 89.96 L 12.701 89.542 L 12.886 89.125 L 13.072 88.709 L 13.259 88.293 L 13.448 87.878 L 13.637 87.464 L 13.828 87.051 L 14.02 86.638 L 14.408 85.814 L 14.604 85.403 L 14.801 84.993 L 14.999 84.583 L 15.399 83.767 L 15.601 83.359 L 15.804 82.953 L 16.008 82.547 L 16.214 82.141 L 16.42 81.737 L 16.628 81.333 L 16.837 80.93 L 17.047 80.527 L 17.258 80.125 L 17.471 79.724 L 17.685 79.324 L 17.899 78.925 L 18.115 78.526 L 18.551 77.73 L 18.77 77.333 L 18.991 76.938 L 19.213 76.542 L 19.436 76.148 L 19.66 75.754 L 19.885 75.361 L 20.339 74.577 L 20.568 74.187 L 20.798 73.797 L 21.029 73.407 L 21.261 73.019 L 21.494 72.631 L 21.729 72.244 L 21.964 71.858 L 22.201 71.473 L 22.439 71.088 L 22.678 70.704 L 22.918 70.321 L 23.159 69.938 L 23.645 69.176 L 23.889 68.796 L 24.135 68.417 L 24.382 68.038 L 24.63 67.661 L 24.879 67.284 L 25.129 66.908 L 25.38 66.532 L 25.632 66.158 L 25.886 65.784 L 26.14 65.411 L 26.396 65.039 L 26.652 64.668 L 26.91 64.298 L 27.169 63.928 L 27.429 63.559 L 27.69 63.191 L 27.952 62.824 L 28.215 62.457 L 28.479 62.092 L 28.744 61.727 L 29.011 61.363 L 29.278 61 L 29.546 60.638 L 29.816 60.276 L 30.358 59.556 L 30.631 59.197 L 30.905 58.839 L 31.179 58.482 L 31.455 58.126 L 31.732 57.77 L 32.01 57.415 L 32.289 57.062 L 32.569 56.709 L 32.85 56.357 L 33.132 56.005 L 33.415 55.655 L 33.699 55.305 L 33.984 54.957 L 34.271 54.609 L 34.558 54.262 L 34.846 53.916 L 35.135 53.571 L 35.425 53.227 L 35.717 52.883 L 36.009 52.541 L 36.302 52.199 L 36.892 51.519 L 37.188 51.18 L 37.485 50.842 L 37.784 50.505 L 38.083 50.169 L 38.383 49.833 L 38.684 49.499 L 38.987 49.165 L 39.29 48.833 L 39.594 48.501 L 39.899 48.17 L 40.205 47.841 L 40.513 47.512 L 40.821 47.184 L 41.13 46.857 L 41.44 46.53 L 41.751 46.205 L 42.063 45.881 L 42.376 45.557 L 42.69 45.235 L 43.32 44.593 L 43.637 44.273 L 44.273 43.637 L 44.593 43.32 L 45.235 42.69 L 45.557 42.376 L 45.881 42.063 L 46.205 41.751 L 46.53 41.44 L 46.857 41.13 L 47.184 40.821 L 47.512 40.513 L 47.841 40.205 L 48.17 39.899 L 48.501 39.594 L 48.833 39.29 L 49.165 38.987 L 49.499 38.684 L 49.833 38.383 L 50.169 38.083 L 50.505 37.784 L 50.842 37.485 L 51.18 37.188 L 51.519 36.892 L 52.199 36.302 L 52.541 36.009 L 52.883 35.717 L 53.227 35.425 L 53.571 35.135 L 53.916 34.846 L 54.262 34.558 L 54.609 34.271 L 54.957 33.984 L 55.305 33.699 L 55.655 33.415 L 56.005 33.132 L 56.357 32.85 L 56.709 32.569 L 57.062 32.289 L 57.415 32.01 L 57.77 31.732 L 58.126 31.455 L 58.482 31.179 L 58.839 30.905 L 59.197 30.631 L 59.556 30.358 L 60.276 29.816 L 60.638 29.546 L 61 29.278 L 61.363 29.011 L 61.727 28.744 L 62.092 28.479 L 62.457 28.215 L 62.824 27.952 L 63.191 27.69 L 63.559 27.429 L 63.928 27.169 L 64.298 26.91 L 64.668 26.652 L 65.039 26.396 L 65.411 26.14 L 65.784 25.886 L 66.158 25.632 L 66.532 25.38 L 66.908 25.129 L 67.284 24.879 L 67.661 24.63 L 68.038 24.382 L 68.417 24.135 L 68.796 23.889 L 69.176 23.645 L 69.938 23.159 L 70.321 22.918 L 70.704 22.678 L 71.088 22.439 L 71.473 22.201 L 71.858 21.964 L 72.244 21.729 L 72.631 21.494 L 73.019 21.261 L 73.407 21.029 L 73.797 20.798 L 74.187 20.568 L 74.577 20.339 L 75.361 19.885 L 75.754 19.66 L 76.148 19.436 L 76.542 19.213 L 76.938 18.991 L 77.333 18.77 L 77.73 18.551 L 78.526 18.115 L 78.925 17.899 L 79.324 17.685 L 79.724 17.471 L 80.125 17.258 L 80.527 17.047 L 80.93 16.837 L 81.333 16.628 L 81.737 16.42 L 82.141 16.214 L 82.547 16.008 L 82.953 15.804 L 83.359 15.601 L 83.767 15.399 L 84.583 14.999 L 84.993 14.801 L 85.403 14.604 L 85.814 14.408 L 86.638 14.02 L 87.051 13.828 L 87.464 13.637 L 87.878 13.448 L 88.293 13.259 L 88.709 13.072 L 89.125 12.886 L 89.542 12.701 L 89.96 12.517 L 90.378 12.335 L 90.797 12.154 L 91.216 11.974 L 91.637 11.796 L 92.057 11.618 L 92.479 11.442 L 92.901 11.267 L 93.747 10.921 L 94.172 10.75 L 94.596 10.58 L 95.022 10.411 L 95.448 10.244 L 95.874 10.078 L 96.302 9.913 L 96.729 9.75 L 97.158 9.587 L 97.587 9.426 L 98.447 9.108 L 98.878 8.951 L 99.31 8.795 L 99.742 8.64 L 100.175 8.487 L 100.608 8.335 L 101.042 8.184 L 101.477 8.035 L 101.912 7.887 L 102.348 7.74 L 102.784 7.594 L 103.221 7.45 L 103.659 7.307 L 104.097 7.166 L 104.536 7.025 L 104.975 6.886 L 105.415 6.748 L 105.856 6.612 L 106.297 6.477 L 106.738 6.343 L 107.181 6.211 L 107.623 6.08 L 108.067 5.95 L 108.955 5.694 L 109.4 5.569 L 109.846 5.444 L 110.292 5.321 L 110.739 5.199 L 111.186 5.079 L 111.634 4.96 L 112.082 4.842 L 112.531 4.726 L 112.981 4.611 L 113.431 4.497 L 113.881 4.385 L 114.332 4.274 L 114.784 4.164 L 115.236 4.056 L 115.689 3.949 L 116.142 3.844 L 116.595 3.74 L 117.05 3.637 L 117.504 3.536 L 117.96 3.436 L 118.415 3.337 L 118.872 3.24 L 119.328 3.144 L 119.786 3.05 L 120.243 2.957 L 120.702 2.865 L 121.161 2.775 L 121.62 2.686 L 122.54 2.512 L 123.001 2.428 L 123.462 2.345 L 123.924 2.263 L 124.386 2.182 L 124.849 2.103 L 125.312 2.026 L 125.775 1.95 L 126.24 1.875 L 126.704 1.802 L 127.169 1.73 L 127.635 1.659 L 128.101 1.59 L 128.567 1.523 L 129.034 1.456 L 129.502 1.392 L 129.969 1.328 L 130.438 1.266 L 130.907 1.206 L 131.376 1.147 L 131.845 1.09 L 132.315 1.034 L 132.786 0.979 L 133.257 0.926 L 133.728 0.874 L 134.2 0.824 L 134.673 0.775 L 135.145 0.728 L 135.618 0.682 L 136.092 0.638 L 136.566 0.595 L 137.04 0.553 L 137.515 0.513 L 137.99 0.475 L 138.466 0.438 L 138.942 0.402 L 139.419 0.368 L 139.895 0.336 L 140.373 0.305 L 140.85 0.275 L 141.329 0.247 L 141.807 0.22 L 142.286 0.195 L 142.765 0.172 L 143.245 0.15 L 143.725 0.129 L 144.205 0.11 L 144.686 0.093 L 145.167 0.077 L 145.649 0.062 L 146.131 0.049 L 146.613 0.038 L 147.096 0.028 L 147.579 0.019 L 148.063 0.012 L 148.546 0.007 L 149.031 0.003 L 149.515 0.001 L 150 0 L 150.485 0.001 Z M 149.566 16.001 L 149.132 16.003 L 148.699 16.006 L 148.265 16.011 L 147.833 16.017 L 147.4 16.025 L 146.968 16.034 L 146.537 16.044 L 146.105 16.056 L 145.675 16.069 L 145.244 16.083 L 144.814 16.099 L 144.384 16.116 L 143.955 16.134 L 143.526 16.154 L 143.097 16.175 L 142.669 16.197 L 142.241 16.221 L 141.813 16.246 L 141.386 16.272 L 140.959 16.3 L 140.533 16.329 L 140.107 16.36 L 139.682 16.392 L 139.256 16.425 L 138.832 16.459 L 138.407 16.495 L 137.983 16.532 L 137.56 16.57 L 137.136 16.61 L 136.714 16.651 L 136.291 16.693 L 135.869 16.737 L 135.448 16.781 L 135.026 16.828 L 134.606 16.875 L 134.185 16.924 L 133.765 16.974 L 133.346 17.025 L 132.927 17.078 L 132.508 17.132 L 132.09 17.187 L 131.672 17.244 L 131.254 17.302 L 130.837 17.361 L 130.421 17.421 L 130.005 17.483 L 129.589 17.546 L 129.173 17.61 L 128.759 17.675 L 128.344 17.742 L 127.93 17.81 L 127.517 17.879 L 127.103 17.95 L 126.691 18.022 L 126.279 18.095 L 125.867 18.169 L 125.455 18.245 L 125.044 18.321 L 124.224 18.479 L 123.814 18.559 L 123.405 18.641 L 122.997 18.724 L 122.588 18.809 L 122.181 18.894 L 121.773 18.981 L 121.367 19.069 L 120.96 19.158 L 120.554 19.248 L 120.149 19.34 L 119.744 19.433 L 119.34 19.527 L 118.532 19.719 L 118.129 19.817 L 117.726 19.916 L 117.324 20.016 L 116.522 20.22 L 116.121 20.324 L 115.721 20.429 L 115.321 20.535 L 114.523 20.751 L 114.125 20.861 L 113.728 20.972 L 113.33 21.085 L 112.934 21.198 L 112.537 21.313 L 112.142 21.429 L 111.747 21.546 L 111.352 21.664 L 110.958 21.783 L 110.564 21.904 L 110.171 22.025 L 109.778 22.148 L 109.386 22.272 L 108.604 22.524 L 108.213 22.651 L 107.823 22.78 L 107.434 22.91 L 107.045 23.041 L 106.656 23.173 L 106.268 23.307 L 105.881 23.441 L 105.494 23.577 L 105.108 23.714 L 104.722 23.852 L 104.337 23.991 L 103.952 24.131 L 103.568 24.273 L 103.185 24.415 L 102.802 24.559 L 102.419 24.704 L 102.037 24.85 L 101.656 24.997 L 101.275 25.145 L 100.515 25.445 L 100.136 25.597 L 99.758 25.749 L 99.379 25.903 L 99.002 26.058 L 98.625 26.214 L 97.873 26.53 L 97.498 26.689 L 97.124 26.85 L 96.376 27.174 L 96.003 27.338 L 95.631 27.503 L 95.26 27.669 L 94.518 28.005 L 94.148 28.174 L 93.41 28.516 L 93.042 28.689 L 92.308 29.037 L 91.942 29.213 L 91.576 29.39 L 91.211 29.568 L 90.483 29.928 L 90.12 30.109 L 89.757 30.291 L 89.395 30.475 L 89.034 30.659 L 88.673 30.845 L 88.313 31.031 L 87.954 31.219 L 87.595 31.408 L 87.237 31.597 L 86.879 31.788 L 86.523 31.98 L 86.166 32.173 L 85.811 32.367 L 85.456 32.562 L 85.102 32.758 L 84.748 32.955 L 84.395 33.153 L 84.042 33.353 L 83.691 33.553 L 83.34 33.754 L 82.989 33.956 L 82.64 34.16 L 82.29 34.364 L 81.942 34.569 L 81.594 34.776 L 81.247 34.983 L 80.555 35.401 L 80.21 35.611 L 79.522 36.035 L 79.179 36.249 L 78.837 36.463 L 78.495 36.679 L 78.154 36.895 L 77.474 37.331 L 77.136 37.551 L 76.797 37.771 L 76.123 38.215 L 75.787 38.439 L 75.452 38.663 L 75.117 38.889 L 74.783 39.115 L 74.117 39.571 L 73.786 39.8 L 73.454 40.031 L 73.124 40.262 L 72.794 40.494 L 72.466 40.727 L 72.137 40.962 L 71.81 41.197 L 71.483 41.433 L 71.157 41.67 L 70.832 41.908 L 70.507 42.147 L 70.184 42.387 L 69.86 42.628 L 69.538 42.87 L 68.896 43.356 L 68.576 43.601 L 68.256 43.847 L 67.938 44.093 L 67.62 44.341 L 67.303 44.589 L 66.671 45.089 L 66.357 45.34 L 66.043 45.592 L 65.729 45.845 L 65.417 46.099 L 65.105 46.354 L 64.794 46.61 L 64.484 46.867 L 63.866 47.383 L 63.252 47.903 L 62.945 48.164 L 62.64 48.426 L 62.335 48.69 L 61.729 49.218 L 61.426 49.484 L 60.824 50.018 L 60.226 50.556 L 59.927 50.826 L 59.333 51.37 L 59.038 51.642 L 58.743 51.916 L 58.155 52.466 L 57.571 53.02 L 57.281 53.298 L 56.991 53.577 L 56.701 53.857 L 56.413 54.137 L 55.839 54.701 L 55.553 54.984 L 55.269 55.269 L 54.984 55.553 L 54.701 55.839 L 54.137 56.413 L 53.857 56.701 L 53.577 56.991 L 53.298 57.281 L 53.02 57.571 L 52.466 58.155 L 51.916 58.743 L 51.642 59.038 L 51.37 59.333 L 50.826 59.927 L 50.556 60.226 L 50.018 60.824 L 49.484 61.426 L 49.218 61.729 L 48.69 62.335 L 48.426 62.64 L 48.164 62.945 L 47.903 63.252 L 47.383 63.866 L 46.867 64.484 L 46.61 64.794 L 46.354 65.105 L 46.099 65.417 L 45.845 65.729 L 45.592 66.043 L 45.34 66.357 L 45.089 66.671 L 44.589 67.303 L 44.341 67.62 L 44.093 67.938 L 43.847 68.256 L 43.601 68.576 L 43.356 68.896 L 42.87 69.538 L 42.628 69.86 L 42.387 70.184 L 42.147 70.507 L 41.908 70.832 L 41.67 71.157 L 41.433 71.483 L 41.197 71.81 L 40.962 72.137 L 40.727 72.466 L 40.494 72.794 L 40.262 73.124 L 40.031 73.454 L 39.8 73.786 L 39.571 74.117 L 39.115 74.783 L 38.889 75.117 L 38.663 75.452 L 38.439 75.787 L 38.215 76.123 L 37.771 76.797 L 37.551 77.136 L 37.331 77.474 L 36.895 78.154 L 36.679 78.495 L 36.463 78.837 L 36.249 79.179 L 36.035 79.522 L 35.611 80.21 L 35.401 80.555 L 34.983 81.247 L 34.776 81.594 L 34.569 81.942 L 34.364 82.29 L 34.16 82.64 L 33.956 82.989 L 33.754 83.34 L 33.553 83.691 L 33.353 84.042 L 33.153 84.395 L 32.955 84.748 L 32.758 85.102 L 32.562 85.456 L 32.367 85.811 L 32.173 86.166 L 31.98 86.523 L 31.788 86.879 L 31.597 87.237 L 31.408 87.595 L 31.219 87.954 L 31.031 88.313 L 30.845 88.673 L 30.659 89.034 L 30.475 89.395 L 30.291 89.757 L 30.109 90.12 L 29.928 90.483 L 29.568 91.211 L 29.39 91.576 L 29.213 91.942 L 29.037 92.308 L 28.689 93.042 L 28.516 93.41 L 28.174 94.148 L 28.005 94.518 L 27.669 95.26 L 27.503 95.631 L 27.338 96.003 L 27.174 96.376 L 26.85 97.124 L 26.689 97.498 L 26.53 97.873 L 26.214 98.625 L 26.058 99.002 L 25.903 99.379 L 25.749 99.758 L 25.597 100.136 L 25.445 100.515 L 25.145 101.275 L 24.997 101.656 L 24.85 102.037 L 24.704 102.419 L 24.559 102.802 L 24.415 103.185 L 24.273 103.568 L 24.131 103.952 L 23.991 104.337 L 23.852 104.722 L 23.714 105.108 L 23.577 105.494 L 23.441 105.881 L 23.307 106.268 L 23.173 106.656 L 23.041 107.045 L 22.91 107.434 L 22.78 107.823 L 22.651 108.213 L 22.524 108.604 L 22.272 109.386 L 22.148 109.778 L 22.025 110.171 L 21.904 110.564 L 21.783 110.958 L 21.664 111.352 L 21.546 111.747 L 21.429 112.142 L 21.313 112.537 L 21.198 112.934 L 21.085 113.33 L 20.972 113.728 L 20.861 114.125 L 20.751 114.523 L 20.535 115.321 L 20.429 115.721 L 20.324 116.121 L 20.22 116.522 L 20.016 117.324 L 19.916 117.726 L 19.817 118.129 L 19.719 118.532 L 19.527 119.34 L 19.433 119.744 L 19.34 120.149 L 19.248 120.554 L 19.158 120.96 L 19.069 121.367 L 18.981 121.773 L 18.894 122.181 L 18.809 122.588 L 18.724 122.997 L 18.641 123.405 L 18.559 123.814 L 18.479 124.224 L 18.321 125.044 L 18.245 125.455 L 18.169 125.867 L 18.095 126.279 L 18.022 126.691 L 17.95 127.103 L 17.879 127.517 L 17.81 127.93 L 17.742 128.344 L 17.675 128.759 L 17.61 129.173 L 17.546 129.589 L 17.483 130.005 L 17.421 130.421 L 17.361 130.837 L 17.302 131.254 L 17.244 131.672 L 17.187 132.09 L 17.132 132.508 L 17.078 132.927 L 17.025 133.346 L 16.974 133.765 L 16.924 134.185 L 16.875 134.606 L 16.828 135.026 L 16.781 135.448 L 16.737 135.869 L 16.693 136.291 L 16.651 136.714 L 16.61 137.136 L 16.57 137.56 L 16.532 137.983 L 16.495 138.407 L 16.459 138.832 L 16.425 139.256 L 16.392 139.682 L 16.36 140.107 L 16.329 140.533 L 16.3 140.959 L 16.272 141.386 L 16.246 141.813 L 16.221 142.241 L 16.197 142.669 L 16.175 143.097 L 16.154 143.526 L 16.134 143.955 L 16.116 144.384 L 16.099 144.814 L 16.083 145.244 L 16.069 145.675 L 16.056 146.105 L 16.044 146.537 L 16.034 146.968 L 16.025 147.4 L 16.017 147.833 L 16.011 148.265 L 16.006 148.699 L 16.003 149.132 L 16.001 149.566 L 16 150 L 16.001 150.434 L 16.003 150.868 L 16.006 151.301 L 16.011 151.735 L 16.017 152.167 L 16.025 152.6 L 16.034 153.032 L 16.044 153.463 L 16.056 153.895 L 16.069 154.325 L 16.083 154.756 L 16.099 155.186 L 16.116 155.616 L 16.134 156.045 L 16.154 156.474 L 16.175 156.903 L 16.197 157.331 L 16.221 157.759 L 16.246 158.187 L 16.272 158.614 L 16.3 159.041 L 16.329 159.467 L 16.36 159.893 L 16.392 160.318 L 16.425 160.744 L 16.459 161.168 L 16.495 161.593 L 16.532 162.017 L 16.57 162.44 L 16.61 162.864 L 16.651 163.286 L 16.693 163.709 L 16.737 164.131 L 16.781 164.552 L 16.828 164.974 L 16.875 165.394 L 16.924 165.815 L 16.974 166.235 L 17.025 166.654 L 17.078 167.073 L 17.132 167.492 L 17.187 167.91 L 17.244 168.328 L 17.302 168.746 L 17.361 169.163 L 17.421 169.579 L 17.483 169.995 L 17.546 170.411 L 17.61 170.827 L 17.675 171.241 L 17.742 171.656 L 17.81 172.07 L 17.879 172.483 L 17.95 172.897 L 18.022 173.309 L 18.095 173.721 L 18.169 174.133 L 18.245 174.545 L 18.321 174.956 L 18.479 175.776 L 18.559 176.186 L 18.641 176.595 L 18.724 177.003 L 18.809 177.412 L 18.894 177.819 L 18.981 178.227 L 19.069 178.633 L 19.158 179.04 L 19.248 179.446 L 19.34 179.851 L 19.433 180.256 L 19.527 180.66 L 19.719 181.468 L 19.817 181.871 L 19.916 182.274 L 20.016 182.676 L 20.22 183.478 L 20.324 183.879 L 20.429 184.279 L 20.535 184.679 L 20.751 185.477 L 20.861 185.875 L 20.972 186.273 L 21.085 186.67 L 21.198 187.066 L 21.313 187.462 L 21.429 187.858 L 21.545 188.253 L 21.664 188.648 L 21.783 189.042 L 21.904 189.436 L 22.025 189.829 L 22.148 190.222 L 22.272 190.614 L 22.524 191.396 L 22.651 191.787 L 22.78 192.177 L 22.91 192.566 L 23.041 192.955 L 23.173 193.344 L 23.307 193.732 L 23.441 194.119 L 23.577 194.506 L 23.714 194.892 L 23.852 195.278 L 23.991 195.663 L 24.131 196.048 L 24.273 196.432 L 24.415 196.815 L 24.559 197.198 L 24.704 197.581 L 24.85 197.963 L 24.997 198.344 L 25.145 198.725 L 25.445 199.485 L 25.749 200.243 L 25.903 200.62 L 26.058 200.998 L 26.214 201.375 L 26.53 202.127 L 26.69 202.502 L 26.85 202.876 L 27.174 203.624 L 27.338 203.997 L 27.503 204.369 L 27.669 204.74 L 28.005 205.482 L 28.174 205.852 L 28.516 206.59 L 28.689 206.958 L 29.037 207.692 L 29.213 208.058 L 29.39 208.424 L 29.568 208.789 L 29.928 209.517 L 30.109 209.88 L 30.291 210.243 L 30.475 210.605 L 30.659 210.966 L 30.845 211.327 L 31.031 211.687 L 31.219 212.046 L 31.408 212.405 L 31.597 212.763 L 31.788 213.12 L 31.98 213.477 L 32.173 213.834 L 32.367 214.189 L 32.562 214.544 L 32.758 214.899 L 32.955 215.252 L 33.153 215.605 L 33.353 215.958 L 33.553 216.309 L 33.754 216.66 L 33.956 217.011 L 34.364 217.709 L 34.569 218.058 L 34.776 218.406 L 34.983 218.753 L 35.401 219.445 L 35.611 219.79 L 36.035 220.478 L 36.249 220.821 L 36.463 221.163 L 36.679 221.505 L 36.895 221.846 L 37.331 222.526 L 37.551 222.864 L 37.771 223.203 L 38.215 223.877 L 38.439 224.213 L 38.663 224.548 L 38.889 224.883 L 39.115 225.217 L 39.571 225.883 L 39.8 226.214 L 40.262 226.876 L 40.494 227.206 L 40.727 227.534 L 40.962 227.863 L 41.197 228.19 L 41.433 228.517 L 41.67 228.843 L 41.908 229.168 L 42.147 229.493 L 42.387 229.816 L 42.628 230.14 L 42.87 230.462 L 43.356 231.104 L 43.601 231.424 L 43.847 231.744 L 44.093 232.062 L 44.341 232.38 L 44.589 232.697 L 45.089 233.329 L 45.34 233.643 L 45.592 233.957 L 45.845 234.271 L 46.099 234.583 L 46.354 234.895 L 46.61 235.206 L 46.867 235.516 L 47.124 235.825 L 47.383 236.134 L 47.903 236.748 L 48.164 237.055 L 48.426 237.36 L 48.69 237.665 L 49.218 238.271 L 49.484 238.574 L 50.018 239.176 L 50.556 239.774 L 50.827 240.073 L 51.098 240.37 L 51.37 240.667 L 51.642 240.962 L 51.916 241.257 L 52.191 241.551 L 52.466 241.844 L 52.743 242.137 L 53.02 242.429 L 53.298 242.719 L 53.577 243.009 L 53.857 243.299 L 54.137 243.587 L 54.701 244.161 L 54.984 244.447 L 55.553 245.016 L 55.839 245.299 L 56.413 245.863 L 56.702 246.144 L 56.991 246.423 L 57.281 246.702 L 57.571 246.98 L 58.155 247.534 L 58.743 248.084 L 59.038 248.358 L 59.333 248.63 L 59.63 248.902 L 59.927 249.173 L 60.226 249.444 L 60.525 249.713 L 60.824 249.981 L 61.125 250.249 L 61.426 250.516 L 61.729 250.782 L 62.032 251.047 L 62.335 251.31 L 62.945 251.836 L 63.559 252.358 L 63.866 252.617 L 64.175 252.876 L 64.484 253.133 L 64.794 253.39 L 65.105 253.646 L 65.417 253.9 L 65.729 254.155 L 66.043 254.408 L 66.356 254.66 L 66.671 254.911 L 67.303 255.411 L 67.62 255.659 L 67.938 255.907 L 68.256 256.153 L 68.576 256.399 L 68.896 256.644 L 69.538 257.13 L 69.861 257.372 L 70.183 257.613 L 70.507 257.853 L 70.832 258.092 L 71.157 258.33 L 71.483 258.567 L 71.81 258.803 L 72.137 259.038 L 72.465 259.272 L 72.794 259.506 L 73.124 259.738 L 73.786 260.2 L 74.117 260.429 L 74.783 260.885 L 75.117 261.111 L 75.452 261.337 L 75.787 261.561 L 76.123 261.785 L 76.797 262.229 L 77.135 262.449 L 77.474 262.668 L 77.814 262.887 L 78.154 263.105 L 78.495 263.321 L 78.837 263.537 L 79.179 263.751 L 79.522 263.965 L 80.21 264.389 L 80.555 264.599 L 80.901 264.808 L 81.248 265.017 L 81.942 265.431 L 82.29 265.636 L 82.64 265.84 L 82.989 266.044 L 83.339 266.246 L 84.043 266.648 L 84.395 266.847 L 84.748 267.045 L 85.102 267.242 L 85.456 267.438 L 85.811 267.633 L 86.167 267.827 L 86.523 268.02 L 86.879 268.212 L 87.595 268.592 L 87.954 268.781 L 88.313 268.969 L 88.673 269.155 L 89.034 269.341 L 89.395 269.525 L 89.757 269.709 L 90.12 269.891 L 90.483 270.072 L 90.847 270.253 L 91.211 270.432 L 91.576 270.61 L 91.942 270.787 L 92.308 270.962 L 92.675 271.137 L 93.043 271.311 L 93.41 271.484 L 93.779 271.655 L 94.149 271.826 L 94.518 271.995 L 94.888 272.163 L 95.26 272.331 L 95.631 272.497 L 96.004 272.662 L 96.376 272.825 L 96.749 272.988 L 97.124 273.15 L 97.498 273.311 L 97.873 273.47 L 98.625 273.786 L 99.002 273.942 L 99.38 274.097 L 99.757 274.25 L 100.136 274.403 L 100.515 274.555 L 101.275 274.855 L 101.656 275.003 L 102.038 275.15 L 102.419 275.296 L 102.801 275.441 L 103.185 275.585 L 103.568 275.727 L 103.952 275.869 L 104.337 276.009 L 104.722 276.148 L 105.108 276.286 L 105.495 276.423 L 105.881 276.559 L 106.268 276.693 L 106.656 276.827 L 107.045 276.959 L 107.434 277.09 L 107.823 277.22 L 108.213 277.349 L 108.995 277.603 L 109.386 277.728 L 109.779 277.852 L 110.171 277.975 L 110.564 278.096 L 110.958 278.217 L 111.352 278.336 L 111.747 278.454 L 112.142 278.571 L 112.537 278.687 L 112.933 278.802 L 113.331 278.915 L 113.728 279.028 L 114.125 279.139 L 114.523 279.248 L 114.922 279.357 L 115.321 279.465 L 115.721 279.571 L 116.121 279.676 L 116.522 279.78 L 117.324 279.984 L 117.726 280.084 L 118.129 280.183 L 118.532 280.281 L 118.935 280.377 L 119.34 280.473 L 119.744 280.567 L 120.149 280.66 L 120.555 280.752 L 120.96 280.842 L 121.366 280.931 L 121.773 281.019 L 122.181 281.106 L 122.997 281.276 L 123.405 281.359 L 123.814 281.441 L 124.224 281.521 L 125.044 281.679 L 125.455 281.755 L 125.867 281.831 L 126.279 281.905 L 126.691 281.978 L 127.104 282.05 L 127.517 282.121 L 127.93 282.19 L 128.344 282.258 L 128.759 282.325 L 129.173 282.39 L 129.589 282.454 L 130.005 282.517 L 130.42 282.579 L 130.837 282.639 L 131.255 282.698 L 131.672 282.756 L 132.09 282.813 L 132.508 282.868 L 132.926 282.922 L 133.346 282.975 L 133.765 283.026 L 134.185 283.076 L 134.606 283.125 L 135.026 283.172 L 135.447 283.219 L 136.291 283.307 L 136.714 283.349 L 137.136 283.39 L 137.559 283.43 L 137.983 283.468 L 138.407 283.505 L 138.831 283.541 L 139.256 283.575 L 139.682 283.608 L 140.107 283.64 L 140.533 283.671 L 140.96 283.7 L 141.387 283.728 L 141.813 283.754 L 142.241 283.779 L 142.669 283.803 L 143.097 283.825 L 143.526 283.846 L 143.955 283.866 L 144.384 283.884 L 144.814 283.901 L 145.244 283.917 L 145.675 283.931 L 146.105 283.944 L 146.536 283.956 L 146.968 283.966 L 147.4 283.975 L 147.833 283.983 L 148.265 283.989 L 148.698 283.994 L 149.132 283.997 L 149.566 283.999 L 150 284 L 150.434 283.999 L 150.868 283.997 L 151.302 283.994 L 151.735 283.989 L 152.167 283.983 L 152.6 283.975 L 153.032 283.966 L 153.464 283.956 L 153.895 283.944 L 154.325 283.931 L 154.756 283.917 L 155.186 283.901 L 155.616 283.884 L 156.045 283.866 L 156.474 283.846 L 156.903 283.825 L 157.331 283.803 L 157.759 283.779 L 158.187 283.754 L 158.613 283.728 L 159.04 283.7 L 159.467 283.671 L 159.893 283.64 L 160.318 283.608 L 160.744 283.575 L 161.169 283.541 L 161.593 283.505 L 162.017 283.468 L 162.441 283.43 L 162.864 283.39 L 163.286 283.349 L 163.709 283.307 L 164.553 283.219 L 164.974 283.172 L 165.394 283.125 L 165.815 283.076 L 166.235 283.026 L 166.654 282.975 L 167.074 282.922 L 167.492 282.868 L 167.91 282.813 L 168.328 282.756 L 168.745 282.698 L 169.163 282.639 L 169.58 282.579 L 169.995 282.517 L 170.411 282.454 L 170.827 282.39 L 171.241 282.325 L 171.656 282.258 L 172.07 282.19 L 172.483 282.121 L 172.896 282.05 L 173.309 281.978 L 173.721 281.905 L 174.133 281.831 L 174.545 281.755 L 174.956 281.679 L 175.776 281.521 L 176.186 281.441 L 176.595 281.359 L 177.003 281.276 L 177.411 281.192 L 177.819 281.106 L 178.227 281.019 L 178.634 280.931 L 179.04 280.842 L 179.445 280.752 L 179.851 280.66 L 180.256 280.567 L 180.66 280.473 L 181.065 280.377 L 181.468 280.281 L 181.871 280.183 L 182.274 280.084 L 182.676 279.984 L 183.478 279.78 L 183.879 279.676 L 184.279 279.571 L 184.679 279.465 L 185.078 279.357 L 185.477 279.248 L 185.875 279.139 L 186.272 279.028 L 186.669 278.915 L 187.067 278.802 L 187.462 278.687 L 187.858 278.571 L 188.253 278.454 L 188.648 278.336 L 189.042 278.217 L 189.436 278.096 L 189.829 277.975 L 190.221 277.852 L 190.614 277.728 L 191.005 277.603 L 191.787 277.349 L 192.177 277.22 L 192.566 277.09 L 192.955 276.959 L 193.344 276.827 L 193.732 276.693 L 194.119 276.559 L 194.505 276.423 L 194.892 276.286 L 195.278 276.148 L 195.663 276.009 L 196.048 275.869 L 196.432 275.727 L 196.815 275.585 L 197.199 275.441 L 197.581 275.296 L 197.962 275.15 L 198.344 275.003 L 198.725 274.855 L 199.485 274.555 L 199.864 274.403 L 200.243 274.25 L 200.62 274.097 L 200.998 273.942 L 201.375 273.785 L 201.751 273.628 L 202.127 273.47 L 202.502 273.311 L 202.876 273.15 L 203.25 272.988 L 203.624 272.825 L 203.997 272.662 L 204.369 272.497 L 204.74 272.331 L 205.112 272.163 L 205.482 271.995 L 205.852 271.826 L 206.59 271.484 L 206.957 271.311 L 207.325 271.137 L 207.692 270.962 L 208.058 270.787 L 208.424 270.61 L 208.789 270.432 L 209.153 270.253 L 209.517 270.072 L 209.88 269.891 L 210.243 269.709 L 210.605 269.525 L 210.966 269.341 L 211.327 269.155 L 211.687 268.969 L 212.046 268.781 L 212.405 268.592 L 212.763 268.402 L 213.12 268.212 L 213.477 268.02 L 213.833 267.827 L 214.189 267.633 L 214.544 267.438 L 214.898 267.242 L 215.252 267.045 L 215.605 266.847 L 216.309 266.447 L 216.661 266.246 L 217.011 266.044 L 217.36 265.84 L 217.71 265.636 L 218.058 265.431 L 218.406 265.224 L 218.752 265.017 L 219.099 264.808 L 219.445 264.599 L 219.79 264.388 L 220.134 264.177 L 220.478 263.965 L 220.821 263.751 L 221.505 263.321 L 221.846 263.105 L 222.186 262.887 L 222.526 262.668 L 222.865 262.449 L 223.203 262.229 L 223.877 261.785 L 224.213 261.561 L 224.548 261.337 L 224.883 261.111 L 225.217 260.885 L 225.883 260.429 L 226.214 260.2 L 226.876 259.738 L 227.206 259.506 L 227.534 259.273 L 227.863 259.038 L 228.19 258.803 L 228.517 258.567 L 228.843 258.33 L 229.168 258.092 L 229.493 257.853 L 229.817 257.613 L 230.139 257.372 L 230.462 257.13 L 231.104 256.644 L 231.424 256.399 L 231.744 256.153 L 232.062 255.907 L 232.38 255.659 L 232.697 255.411 L 233.329 254.911 L 233.644 254.66 L 233.957 254.408 L 234.271 254.155 L 234.583 253.9 L 234.895 253.646 L 235.206 253.39 L 235.516 253.133 L 235.825 252.876 L 236.134 252.617 L 236.441 252.358 L 237.055 251.836 L 237.665 251.31 L 237.968 251.047 L 238.271 250.782 L 238.574 250.516 L 239.176 249.982 L 239.774 249.444 L 240.073 249.173 L 240.37 248.902 L 240.667 248.63 L 240.962 248.358 L 241.257 248.084 L 241.551 247.809 L 241.844 247.534 L 242.137 247.257 L 242.429 246.98 L 242.719 246.702 L 243.009 246.423 L 243.298 246.144 L 243.587 245.863 L 244.161 245.299 L 244.732 244.732 L 245.299 244.161 L 245.863 243.587 L 246.144 243.298 L 246.423 243.009 L 246.702 242.719 L 246.98 242.429 L 247.257 242.137 L 247.534 241.844 L 247.809 241.551 L 248.084 241.257 L 248.358 240.962 L 248.63 240.667 L 248.902 240.37 L 249.173 240.073 L 249.444 239.774 L 249.982 239.176 L 250.516 238.574 L 250.782 238.271 L 251.047 237.968 L 251.31 237.665 L 251.836 237.055 L 252.358 236.441 L 252.617 236.134 L 252.876 235.825 L 253.133 235.516 L 253.39 235.206 L 253.646 234.895 L 253.9 234.583 L 254.155 234.271 L 254.408 233.957 L 254.66 233.644 L 254.911 233.329 L 255.411 232.697 L 255.659 232.38 L 255.907 232.062 L 256.153 231.744 L 256.399 231.424 L 256.644 231.104 L 257.13 230.462 L 257.372 230.139 L 257.613 229.817 L 257.853 229.493 L 258.092 229.168 L 258.33 228.843 L 258.567 228.517 L 258.803 228.19 L 259.038 227.863 L 259.273 227.534 L 259.506 227.206 L 259.738 226.876 L 260.2 226.214 L 260.429 225.883 L 260.885 225.217 L 261.111 224.883 L 261.337 224.548 L 261.561 224.213 L 261.785 223.877 L 262.229 223.203 L 262.449 222.865 L 262.668 222.526 L 262.887 222.186 L 263.105 221.846 L 263.321 221.505 L 263.751 220.821 L 263.965 220.478 L 264.177 220.134 L 264.388 219.79 L 264.599 219.445 L 264.808 219.099 L 265.017 218.752 L 265.224 218.406 L 265.431 218.058 L 265.636 217.71 L 265.84 217.36 L 266.044 217.011 L 266.246 216.661 L 266.447 216.309 L 266.847 215.605 L 267.045 215.252 L 267.242 214.898 L 267.438 214.544 L 267.633 214.189 L 267.827 213.833 L 268.02 213.477 L 268.212 213.12 L 268.402 212.763 L 268.592 212.405 L 268.781 212.046 L 268.969 211.687 L 269.155 211.327 L 269.341 210.966 L 269.525 210.605 L 269.709 210.243 L 269.891 209.88 L 270.072 209.517 L 270.253 209.153 L 270.432 208.789 L 270.61 208.424 L 270.787 208.058 L 270.962 207.692 L 271.137 207.325 L 271.311 206.957 L 271.484 206.59 L 271.826 205.852 L 271.995 205.482 L 272.163 205.112 L 272.331 204.74 L 272.497 204.369 L 272.662 203.997 L 272.825 203.624 L 272.988 203.25 L 273.15 202.876 L 273.311 202.502 L 273.47 202.127 L 273.628 201.751 L 273.785 201.375 L 273.942 200.998 L 274.097 200.62 L 274.25 200.243 L 274.403 199.864 L 274.555 199.485 L 274.855 198.725 L 275.003 198.344 L 275.15 197.962 L 275.296 197.581 L 275.441 197.199 L 275.585 196.815 L 275.727 196.432 L 275.869 196.048 L 276.009 195.663 L 276.148 195.278 L 276.286 194.892 L 276.423 194.505 L 276.559 194.119 L 276.693 193.732 L 276.827 193.344 L 276.959 192.955 L 277.09 192.566 L 277.22 192.177 L 277.349 191.787 L 277.603 191.005 L 277.728 190.614 L 277.852 190.221 L 277.975 189.829 L 278.096 189.436 L 278.217 189.042 L 278.336 188.648 L 278.454 188.253 L 278.571 187.858 L 278.687 187.462 L 278.802 187.067 L 278.915 186.669 L 279.028 186.272 L 279.139 185.875 L 279.248 185.477 L 279.357 185.078 L 279.465 184.679 L 279.571 184.279 L 279.676 183.879 L 279.78 183.478 L 279.984 182.676 L 280.084 182.274 L 280.183 181.871 L 280.281 181.468 L 280.377 181.065 L 280.473 180.66 L 280.567 180.256 L 280.66 179.851 L 280.752 179.445 L 280.842 179.04 L 280.931 178.634 L 281.019 178.227 L 281.106 177.819 L 281.192 177.411 L 281.276 177.003 L 281.359 176.595 L 281.441 176.186 L 281.521 175.776 L 281.679 174.956 L 281.755 174.545 L 281.831 174.133 L 281.905 173.721 L 281.978 173.309 L 282.05 172.896 L 282.121 172.483 L 282.19 172.07 L 282.258 171.656 L 282.325 171.241 L 282.39 170.827 L 282.454 170.411 L 282.517 169.995 L 282.579 169.58 L 282.639 169.163 L 282.698 168.745 L 282.756 168.328 L 282.813 167.91 L 282.868 167.492 L 282.922 167.074 L 282.975 166.654 L 283.026 166.235 L 283.076 165.815 L 283.125 165.394 L 283.172 164.974 L 283.219 164.553 L 283.307 163.709 L 283.349 163.286 L 283.39 162.864 L 283.43 162.441 L 283.468 162.017 L 283.505 161.593 L 283.541 161.169 L 283.575 160.744 L 283.608 160.318 L 283.64 159.893 L 283.671 159.467 L 283.7 159.04 L 283.728 158.613 L 283.754 158.187 L 283.779 157.759 L 283.803 157.331 L 283.825 156.903 L 283.846 156.474 L 283.866 156.045 L 283.884 155.616 L 283.901 155.186 L 283.917 154.756 L 283.931 154.325 L 283.944 153.895 L 283.956 153.464 L 283.966 153.032 L 283.975 152.6 L 283.983 152.167 L 283.989 151.735 L 283.994 151.302 L 283.997 150.868 L 283.999 150.434 L 284 150 L 283.999 149.566 L 283.997 149.132 L 283.994 148.698 L 283.989 148.265 L 283.983 147.833 L 283.975 147.4 L 283.966 146.968 L 283.956 146.536 L 283.944 146.105 L 283.931 145.675 L 283.917 145.244 L 283.901 144.814 L 283.884 144.384 L 283.866 143.955 L 283.846 143.526 L 283.825 143.097 L 283.803 142.669 L 283.779 142.241 L 283.754 141.813 L 283.728 141.387 L 283.7 140.96 L 283.671 140.533 L 283.64 140.107 L 283.608 139.682 L 283.575 139.256 L 283.541 138.831 L 283.505 138.407 L 283.468 137.983 L 283.43 137.559 L 283.39 137.136 L 283.349 136.714 L 283.307 136.291 L 283.219 135.447 L 283.172 135.026 L 283.125 134.606 L 283.076 134.185 L 283.026 133.765 L 282.975 133.346 L 282.922 132.926 L 282.868 132.508 L 282.813 132.09 L 282.756 131.672 L 282.698 131.255 L 282.639 130.837 L 282.579 130.42 L 282.517 130.005 L 282.454 129.589 L 282.39 129.173 L 282.325 128.759 L 282.258 128.344 L 282.19 127.93 L 282.121 127.517 L 282.05 127.104 L 281.978 126.691 L 281.905 126.279 L 281.831 125.867 L 281.755 125.455 L 281.679 125.044 L 281.521 124.224 L 281.441 123.814 L 281.359 123.405 L 281.276 122.997 L 281.106 122.181 L 281.019 121.773 L 280.931 121.366 L 280.842 120.96 L 280.752 120.555 L 280.66 120.149 L 280.567 119.744 L 280.473 119.34 L 280.377 118.935 L 280.281 118.532 L 280.183 118.129 L 280.084 117.726 L 279.984 117.324 L 279.78 116.522 L 279.676 116.121 L 279.571 115.721 L 279.465 115.321 L 279.357 114.922 L 279.248 114.523 L 279.139 114.125 L 279.028 113.728 L 278.915 113.331 L 278.802 112.933 L 278.687 112.537 L 278.571 112.142 L 278.454 111.747 L 278.336 111.352 L 278.217 110.958 L 278.096 110.564 L 277.975 110.171 L 277.852 109.779 L 277.728 109.386 L 277.603 108.995 L 277.349 108.213 L 277.22 107.823 L 277.09 107.434 L 276.959 107.045 L 276.827 106.656 L 276.693 106.268 L 276.559 105.881 L 276.423 105.495 L 276.286 105.108 L 276.148 104.722 L 276.009 104.337 L 275.869 103.952 L 275.727 103.568 L 275.585 103.185 L 275.441 102.801 L 275.296 102.419 L 275.15 102.038 L 275.003 101.656 L 274.855 101.275 L 274.555 100.515 L 274.403 100.136 L 274.25 99.757 L 274.097 99.38 L 273.942 99.002 L 273.786 98.625 L 273.47 97.873 L 273.311 97.498 L 273.15 97.124 L 272.988 96.749 L 272.825 96.376 L 272.662 96.004 L 272.497 95.631 L 272.331 95.26 L 272.163 94.888 L 271.995 94.518 L 271.826 94.149 L 271.655 93.779 L 271.484 93.41 L 271.311 93.043 L 271.137 92.675 L 270.962 92.308 L 270.787 91.942 L 270.61 91.576 L 270.432 91.211 L 270.253 90.847 L 270.072 90.483 L 269.891 90.12 L 269.709 89.757 L 269.525 89.395 L 269.341 89.034 L 269.155 88.673 L 268.969 88.313 L 268.781 87.954 L 268.592 87.595 L 268.212 86.879 L 268.02 86.523 L 267.827 86.167 L 267.633 85.811 L 267.438 85.456 L 267.242 85.102 L 267.045 84.748 L 266.847 84.395 L 266.648 84.043 L 266.246 83.339 L 266.044 82.989 L 265.84 82.64 L 265.636 82.29 L 265.431 81.942 L 265.017 81.248 L 264.808 80.901 L 264.599 80.555 L 264.389 80.21 L 263.965 79.522 L 263.751 79.179 L 263.537 78.837 L 263.321 78.495 L 263.105 78.154 L 262.887 77.814 L 262.668 77.474 L 262.449 77.135 L 262.229 76.797 L 261.785 76.123 L 261.561 75.787 L 261.337 75.452 L 261.111 75.117 L 260.885 74.783 L 260.429 74.117 L 260.2 73.786 L 259.738 73.124 L 259.506 72.794 L 259.272 72.465 L 259.038 72.137 L 258.803 71.81 L 258.567 71.483 L 258.33 71.157 L 258.092 70.832 L 257.853 70.507 L 257.613 70.183 L 257.372 69.861 L 257.13 69.538 L 256.644 68.896 L 256.399 68.576 L 256.153 68.256 L 255.907 67.938 L 255.659 67.62 L 255.411 67.303 L 254.911 66.671 L 254.66 66.356 L 254.408 66.043 L 254.155 65.729 L 253.9 65.417 L 253.646 65.105 L 253.39 64.794 L 253.133 64.484 L 252.876 64.175 L 252.617 63.866 L 252.358 63.559 L 251.836 62.945 L 251.31 62.335 L 251.047 62.032 L 250.782 61.729 L 250.516 61.426 L 250.249 61.125 L 249.981 60.824 L 249.713 60.525 L 249.444 60.226 L 249.173 59.927 L 248.902 59.63 L 248.63 59.333 L 248.358 59.038 L 248.084 58.743 L 247.534 58.155 L 246.98 57.571 L 246.702 57.281 L 246.423 56.991 L 246.144 56.702 L 245.863 56.413 L 245.299 55.839 L 245.016 55.553 L 244.447 54.984 L 244.161 54.701 L 243.587 54.137 L 243.299 53.857 L 243.009 53.577 L 242.719 53.298 L 242.429 53.02 L 242.137 52.743 L 241.844 52.466 L 241.551 52.191 L 241.257 51.916 L 240.962 51.642 L 240.667 51.37 L 240.37 51.098 L 240.073 50.827 L 239.774 50.556 L 239.176 50.018 L 238.574 49.484 L 238.271 49.218 L 237.665 48.69 L 237.36 48.426 L 237.055 48.164 L 236.748 47.903 L 236.134 47.383 L 235.825 47.124 L 235.516 46.867 L 235.206 46.61 L 234.895 46.354 L 234.583 46.099 L 234.271 45.845 L 233.957 45.592 L 233.643 45.34 L 233.329 45.089 L 232.697 44.589 L 232.38 44.341 L 232.062 44.093 L 231.744 43.847 L 231.424 43.601 L 231.104 43.356 L 230.462 42.87 L 230.14 42.628 L 229.816 42.387 L 229.493 42.147 L 229.168 41.908 L 228.843 41.67 L 228.517 41.433 L 228.19 41.197 L 227.863 40.962 L 227.534 40.727 L 227.206 40.494 L 226.876 40.262 L 226.214 39.8 L 225.883 39.571 L 225.217 39.115 L 224.883 38.889 L 224.548 38.663 L 224.213 38.439 L 223.877 38.215 L 223.203 37.771 L 222.864 37.551 L 222.526 37.331 L 221.846 36.895 L 221.505 36.679 L 221.163 36.463 L 220.821 36.249 L 220.478 36.035 L 219.79 35.611 L 219.445 35.401 L 218.753 34.983 L 218.406 34.776 L 218.058 34.569 L 217.709 34.364 L 217.011 33.956 L 216.66 33.754 L 216.309 33.553 L 215.958 33.353 L 215.605 33.153 L 215.252 32.955 L 214.899 32.758 L 214.544 32.562 L 214.189 32.367 L 213.834 32.173 L 213.477 31.98 L 213.12 31.788 L 212.763 31.597 L 212.405 31.408 L 212.046 31.219 L 211.687 31.031 L 211.327 30.845 L 210.966 30.659 L 210.605 30.475 L 210.243 30.291 L 209.88 30.109 L 209.517 29.928 L 208.789 29.568 L 208.424 29.39 L 208.058 29.213 L 207.692 29.037 L 206.958 28.689 L 206.59 28.516 L 205.852 28.174 L 205.482 28.005 L 204.74 27.669 L 204.369 27.503 L 203.997 27.338 L 203.624 27.174 L 202.876 26.85 L 202.502 26.69 L 202.127 26.53 L 201.375 26.214 L 200.998 26.058 L 200.62 25.903 L 200.243 25.749 L 199.485 25.445 L 198.725 25.145 L 198.344 24.997 L 197.963 24.85 L 197.581 24.704 L 197.198 24.559 L 196.815 24.415 L 196.432 24.273 L 196.048 24.131 L 195.663 23.991 L 195.278 23.852 L 194.892 23.714 L 194.506 23.577 L 194.119 23.441 L 193.732 23.307 L 193.344 23.173 L 192.955 23.041 L 192.566 22.91 L 192.177 22.78 L 191.787 22.651 L 191.396 22.524 L 190.614 22.272 L 190.222 22.148 L 189.829 22.025 L 189.436 21.904 L 189.042 21.783 L 188.648 21.664 L 188.253 21.545 L 187.858 21.429 L 187.462 21.313 L 187.066 21.198 L 186.67 21.085 L 186.273 20.972 L 185.875 20.861 L 185.477 20.751 L 184.679 20.535 L 184.279 20.429 L 183.879 20.324 L 183.478 20.22 L 182.676 20.016 L 182.274 19.916 L 181.871 19.817 L 181.468 19.719 L 180.66 19.527 L 180.256 19.433 L 179.851 19.34 L 179.446 19.248 L 179.04 19.158 L 178.633 19.069 L 178.227 18.981 L 177.819 18.894 L 177.412 18.809 L 177.003 18.724 L 176.595 18.641 L 176.186 18.559 L 175.776 18.479 L 174.956 18.321 L 174.545 18.245 L 174.133 18.169 L 173.721 18.095 L 173.309 18.022 L 172.897 17.95 L 172.483 17.879 L 172.07 17.81 L 171.656 17.742 L 171.241 17.675 L 170.827 17.61 L 170.411 17.546 L 169.995 17.483 L 169.579 17.421 L 169.163 17.361 L 168.746 17.302 L 168.328 17.244 L 167.91 17.187 L 167.492 17.132 L 167.073 17.078 L 166.654 17.025 L 166.235 16.974 L 165.815 16.924 L 165.394 16.875 L 164.974 16.828 L 164.552 16.781 L 164.131 16.737 L 163.709 16.693 L 163.286 16.651 L 162.864 16.61 L 162.44 16.57 L 162.017 16.532 L 161.593 16.495 L 161.168 16.459 L 160.744 16.425 L 160.318 16.392 L 159.893 16.36 L 159.467 16.329 L 159.041 16.3 L 158.614 16.272 L 158.187 16.246 L 157.759 16.221 L 157.331 16.197 L 156.903 16.175 L 156.474 16.154 L 156.045 16.134 L 155.616 16.116 L 155.186 16.099 L 154.756 16.083 L 154.325 16.069 L 153.895 16.056 L 153.463 16.044 L 153.032 16.034 L 152.6 16.025 L 152.167 16.017 L 151.735 16.011 L 151.301 16.006 L 150.868 16.003 L 150.434 16.001 L 150 16 L 149.566 16.001 Z" stroke-linecap="round"/>
</g>
</g>
</g>
<g transform="matrix(38.0687 0 0 38.0687 499.9999 499.9999)" id="943793">
<g style="" vector-effect="non-scaling-stroke">
		<g transform="matrix(1 0 0 1 -0.3496 -2.3012)">
<path style="stroke: rgb(77,77,77); stroke-width: 1.5; stroke-dasharray: none; stroke-linecap: round; stroke-dashoffset: 0; stroke-linejoin: round; stroke-miterlimit: 4; is-custom-font: none; font-file-url: none; fill: none; fill-rule: nonzero; opacity: 1;" transform=" translate(-11.6504, -9.6988)" d="M 7.90039 8.07954 C 7.90039 3.30678 15.4004 3.30682 15.4004 8.07955 C 15.4004 11.4886 11.9913 10.8067 11.9913 14.8976" stroke-linecap="round"/>
</g>
		<g transform="matrix(1 0 0 1 0.005 7.0045)">
<path style="stroke: rgb(77,77,77); stroke-width: 1.5; stroke-dasharray: none; stroke-linecap: round; stroke-dashoffset: 0; stroke-linejoin: round; stroke-miterlimit: 4; is-custom-font: none; font-file-url: none; fill: none; fill-rule: nonzero; opacity: 1;" transform=" translate(-12.005, -19.0044)" d="M 12 19.01 L 12.01 18.9989" stroke-linecap="round"/>
</g>
</g>
</g>
</svg>